<mxfile host="Electron" modified="2024-01-31T09:19:09.139Z" agent="Mozilla/5.0 (Windows NT 10.0; Win64; x64) AppleWebKit/537.36 (KHTML, like Gecko) draw.io/22.1.2 Chrome/114.0.5735.289 Electron/25.9.4 Safari/537.36" etag="wKA5R07R2o6zeEXeFd8Q" version="22.1.2" type="device">
  <diagram name="Page-1" id="gocPVts1W_wHiLYP-nyg">
    <mxGraphModel dx="1736" dy="1209" grid="1" gridSize="10" guides="1" tooltips="1" connect="1" arrows="1" fold="1" page="1" pageScale="1" pageWidth="1169" pageHeight="1654" math="0" shadow="0">
      <root>
        <mxCell id="0" />
        <mxCell id="1" parent="0" />
        <mxCell id="ca8j578SD8EArVR1W1hy-1" value="Platoon&lt;br&gt;" style="swimlane;fontStyle=1;align=center;verticalAlign=top;childLayout=stackLayout;horizontal=1;startSize=26;horizontalStack=0;resizeParent=1;resizeParentMax=0;resizeLast=0;collapsible=1;marginBottom=0;whiteSpace=wrap;html=1;" parent="1" vertex="1">
          <mxGeometry x="300" y="80" width="260" height="130" as="geometry" />
        </mxCell>
        <mxCell id="ca8j578SD8EArVR1W1hy-2" value="+ leader: Leader" style="text;strokeColor=none;fillColor=none;align=left;verticalAlign=top;spacingLeft=4;spacingRight=4;overflow=hidden;rotatable=0;points=[[0,0.5],[1,0.5]];portConstraint=eastwest;whiteSpace=wrap;html=1;" parent="ca8j578SD8EArVR1W1hy-1" vertex="1">
          <mxGeometry y="26" width="260" height="26" as="geometry" />
        </mxCell>
        <mxCell id="ca8j578SD8EArVR1W1hy-3" value="+ primeFollower: PrimeFollower" style="text;strokeColor=none;fillColor=none;align=left;verticalAlign=top;spacingLeft=4;spacingRight=4;overflow=hidden;rotatable=0;points=[[0,0.5],[1,0.5]];portConstraint=eastwest;whiteSpace=wrap;html=1;" parent="ca8j578SD8EArVR1W1hy-1" vertex="1">
          <mxGeometry y="52" width="260" height="26" as="geometry" />
        </mxCell>
        <mxCell id="ca8j578SD8EArVR1W1hy-4" value="+ follower: Follower" style="text;strokeColor=none;fillColor=none;align=left;verticalAlign=top;spacingLeft=4;spacingRight=4;overflow=hidden;rotatable=0;points=[[0,0.5],[1,0.5]];portConstraint=eastwest;whiteSpace=wrap;html=1;" parent="ca8j578SD8EArVR1W1hy-1" vertex="1">
          <mxGeometry y="78" width="260" height="26" as="geometry" />
        </mxCell>
        <mxCell id="ca8j578SD8EArVR1W1hy-5" value="+ follower: Follower" style="text;strokeColor=none;fillColor=none;align=left;verticalAlign=top;spacingLeft=4;spacingRight=4;overflow=hidden;rotatable=0;points=[[0,0.5],[1,0.5]];portConstraint=eastwest;whiteSpace=wrap;html=1;" parent="ca8j578SD8EArVR1W1hy-1" vertex="1">
          <mxGeometry y="104" width="260" height="26" as="geometry" />
        </mxCell>
        <mxCell id="ca8j578SD8EArVR1W1hy-6" value="Truck" style="swimlane;fontStyle=0;childLayout=stackLayout;horizontal=1;startSize=26;fillColor=none;horizontalStack=0;resizeParent=1;resizeParentMax=0;resizeLast=0;collapsible=1;marginBottom=0;whiteSpace=wrap;html=1;" parent="1" vertex="1">
          <mxGeometry x="50" y="230" width="320" height="242" as="geometry" />
        </mxCell>
        <mxCell id="ca8j578SD8EArVR1W1hy-7" value="# direction: String" style="text;strokeColor=none;fillColor=none;align=left;verticalAlign=top;spacingLeft=4;spacingRight=4;overflow=hidden;rotatable=0;points=[[0,0.5],[1,0.5]];portConstraint=eastwest;whiteSpace=wrap;html=1;" parent="ca8j578SD8EArVR1W1hy-6" vertex="1">
          <mxGeometry y="26" width="320" height="26" as="geometry" />
        </mxCell>
        <mxCell id="ca8j578SD8EArVR1W1hy-8" value="# speed: double" style="text;strokeColor=none;fillColor=none;align=left;verticalAlign=top;spacingLeft=4;spacingRight=4;overflow=hidden;rotatable=0;points=[[0,0.5],[1,0.5]];portConstraint=eastwest;whiteSpace=wrap;html=1;" parent="ca8j578SD8EArVR1W1hy-6" vertex="1">
          <mxGeometry y="52" width="320" height="26" as="geometry" />
        </mxCell>
        <mxCell id="ca8j578SD8EArVR1W1hy-9" value="# destination: GPSLocation" style="text;strokeColor=none;fillColor=none;align=left;verticalAlign=top;spacingLeft=4;spacingRight=4;overflow=hidden;rotatable=0;points=[[0,0.5],[1,0.5]];portConstraint=eastwest;whiteSpace=wrap;html=1;" parent="ca8j578SD8EArVR1W1hy-6" vertex="1">
          <mxGeometry y="78" width="320" height="26" as="geometry" />
        </mxCell>
        <mxCell id="ca8j578SD8EArVR1W1hy-10" value="# location: GPSLocation" style="text;strokeColor=none;fillColor=none;align=left;verticalAlign=top;spacingLeft=4;spacingRight=4;overflow=hidden;rotatable=0;points=[[0,0.5],[1,0.5]];portConstraint=eastwest;whiteSpace=wrap;html=1;" parent="ca8j578SD8EArVR1W1hy-6" vertex="1">
          <mxGeometry y="104" width="320" height="26" as="geometry" />
        </mxCell>
        <mxCell id="ca8j578SD8EArVR1W1hy-11" value="# collisionSensor: CollisionSensor" style="text;strokeColor=none;fillColor=none;align=left;verticalAlign=top;spacingLeft=4;spacingRight=4;overflow=hidden;rotatable=0;points=[[0,0.5],[1,0.5]];portConstraint=eastwest;whiteSpace=wrap;html=1;" parent="ca8j578SD8EArVR1W1hy-6" vertex="1">
          <mxGeometry y="130" width="320" height="26" as="geometry" />
        </mxCell>
        <mxCell id="ca8j578SD8EArVR1W1hy-12" value="" style="line;strokeWidth=1;fillColor=none;align=left;verticalAlign=middle;spacingTop=-1;spacingLeft=3;spacingRight=3;rotatable=0;labelPosition=right;points=[];portConstraint=eastwest;strokeColor=inherit;" parent="ca8j578SD8EArVR1W1hy-6" vertex="1">
          <mxGeometry y="156" width="320" height="8" as="geometry" />
        </mxCell>
        <mxCell id="ca8j578SD8EArVR1W1hy-13" value="# changeSpeed(newSpeed: double): void" style="text;strokeColor=none;fillColor=none;align=left;verticalAlign=top;spacingLeft=4;spacingRight=4;overflow=hidden;rotatable=0;points=[[0,0.5],[1,0.5]];portConstraint=eastwest;whiteSpace=wrap;html=1;" parent="ca8j578SD8EArVR1W1hy-6" vertex="1">
          <mxGeometry y="164" width="320" height="26" as="geometry" />
        </mxCell>
        <mxCell id="ca8j578SD8EArVR1W1hy-14" value="# changeDirection(newDirection: String): void" style="text;strokeColor=none;fillColor=none;align=left;verticalAlign=top;spacingLeft=4;spacingRight=4;overflow=hidden;rotatable=0;points=[[0,0.5],[1,0.5]];portConstraint=eastwest;whiteSpace=wrap;html=1;" parent="ca8j578SD8EArVR1W1hy-6" vertex="1">
          <mxGeometry y="190" width="320" height="26" as="geometry" />
        </mxCell>
        <mxCell id="ca8j578SD8EArVR1W1hy-15" value="# changeDestination(newDestination: GPSLocation): void" style="text;strokeColor=none;fillColor=none;align=left;verticalAlign=top;spacingLeft=4;spacingRight=4;overflow=hidden;rotatable=0;points=[[0,0.5],[1,0.5]];portConstraint=eastwest;whiteSpace=wrap;html=1;" parent="ca8j578SD8EArVR1W1hy-6" vertex="1">
          <mxGeometry y="216" width="320" height="26" as="geometry" />
        </mxCell>
        <mxCell id="ca8j578SD8EArVR1W1hy-16" value="&amp;lt;&amp;lt;interface&amp;gt;&amp;gt;&lt;br&gt;PlatoonTruck" style="swimlane;fontStyle=0;childLayout=stackLayout;horizontal=1;startSize=26;fillColor=none;horizontalStack=0;resizeParent=1;resizeParentMax=0;resizeLast=0;collapsible=1;marginBottom=0;whiteSpace=wrap;html=1;" parent="1" vertex="1">
          <mxGeometry x="180" y="560" width="310" height="112" as="geometry" />
        </mxCell>
        <mxCell id="ca8j578SD8EArVR1W1hy-17" value="" style="line;strokeWidth=1;fillColor=none;align=left;verticalAlign=middle;spacingTop=-1;spacingLeft=3;spacingRight=3;rotatable=0;labelPosition=right;points=[];portConstraint=eastwest;strokeColor=inherit;" parent="ca8j578SD8EArVR1W1hy-16" vertex="1">
          <mxGeometry y="26" width="310" height="8" as="geometry" />
        </mxCell>
        <mxCell id="ca8j578SD8EArVR1W1hy-18" value="- sendMessageToLeader(m: Message): void" style="text;strokeColor=none;fillColor=none;align=left;verticalAlign=top;spacingLeft=4;spacingRight=4;overflow=hidden;rotatable=0;points=[[0,0.5],[1,0.5]];portConstraint=eastwest;whiteSpace=wrap;html=1;" parent="ca8j578SD8EArVR1W1hy-16" vertex="1">
          <mxGeometry y="34" width="310" height="26" as="geometry" />
        </mxCell>
        <mxCell id="ca8j578SD8EArVR1W1hy-19" value="- processReceivedMessage(m: Message): void" style="text;strokeColor=none;fillColor=none;align=left;verticalAlign=top;spacingLeft=4;spacingRight=4;overflow=hidden;rotatable=0;points=[[0,0.5],[1,0.5]];portConstraint=eastwest;whiteSpace=wrap;html=1;" parent="ca8j578SD8EArVR1W1hy-16" vertex="1">
          <mxGeometry y="60" width="310" height="26" as="geometry" />
        </mxCell>
        <mxCell id="ca8j578SD8EArVR1W1hy-20" value="- disconnect(): void" style="text;strokeColor=none;fillColor=none;align=left;verticalAlign=top;spacingLeft=4;spacingRight=4;overflow=hidden;rotatable=0;points=[[0,0.5],[1,0.5]];portConstraint=eastwest;whiteSpace=wrap;html=1;" parent="ca8j578SD8EArVR1W1hy-16" vertex="1">
          <mxGeometry y="86" width="310" height="26" as="geometry" />
        </mxCell>
        <mxCell id="ca8j578SD8EArVR1W1hy-23" value="Leader" style="swimlane;fontStyle=0;childLayout=stackLayout;horizontal=1;startSize=26;fillColor=none;horizontalStack=0;resizeParent=1;resizeParentMax=0;resizeLast=0;collapsible=1;marginBottom=0;whiteSpace=wrap;html=1;" parent="1" vertex="1">
          <mxGeometry x="1020" y="50" width="310" height="190" as="geometry" />
        </mxCell>
        <mxCell id="ca8j578SD8EArVR1W1hy-24" value="- platoon: Platoon" style="text;strokeColor=none;fillColor=none;align=left;verticalAlign=top;spacingLeft=4;spacingRight=4;overflow=hidden;rotatable=0;points=[[0,0.5],[1,0.5]];portConstraint=eastwest;whiteSpace=wrap;html=1;" parent="ca8j578SD8EArVR1W1hy-23" vertex="1">
          <mxGeometry y="26" width="310" height="26" as="geometry" />
        </mxCell>
        <mxCell id="ca8j578SD8EArVR1W1hy-25" value="" style="line;strokeWidth=1;fillColor=none;align=left;verticalAlign=middle;spacingTop=-1;spacingLeft=3;spacingRight=3;rotatable=0;labelPosition=right;points=[];portConstraint=eastwest;strokeColor=inherit;" parent="ca8j578SD8EArVR1W1hy-23" vertex="1">
          <mxGeometry y="52" width="310" height="8" as="geometry" />
        </mxCell>
        <mxCell id="ca8j578SD8EArVR1W1hy-26" value="- boradcast(): void" style="text;strokeColor=none;fillColor=none;align=left;verticalAlign=top;spacingLeft=4;spacingRight=4;overflow=hidden;rotatable=0;points=[[0,0.5],[1,0.5]];portConstraint=eastwest;whiteSpace=wrap;html=1;" parent="ca8j578SD8EArVR1W1hy-23" vertex="1">
          <mxGeometry y="60" width="310" height="26" as="geometry" />
        </mxCell>
        <mxCell id="DZqbYFEfVbbvA-hTLJma-3" style="edgeStyle=orthogonalEdgeStyle;rounded=0;orthogonalLoop=1;jettySize=auto;html=1;endArrow=none;endFill=0;" parent="ca8j578SD8EArVR1W1hy-23" source="ca8j578SD8EArVR1W1hy-27" edge="1">
          <mxGeometry relative="1" as="geometry">
            <mxPoint x="-150" y="310" as="targetPoint" />
          </mxGeometry>
        </mxCell>
        <mxCell id="ca8j578SD8EArVR1W1hy-27" value="- removeFollower(truck: PlatoonTruck): void" style="text;strokeColor=none;fillColor=none;align=left;verticalAlign=top;spacingLeft=4;spacingRight=4;overflow=hidden;rotatable=0;points=[[0,0.5],[1,0.5]];portConstraint=eastwest;whiteSpace=wrap;html=1;" parent="ca8j578SD8EArVR1W1hy-23" vertex="1">
          <mxGeometry y="86" width="310" height="26" as="geometry" />
        </mxCell>
        <mxCell id="ca8j578SD8EArVR1W1hy-28" value="- addFollower(truck: Foreigner): void" style="text;strokeColor=none;fillColor=none;align=left;verticalAlign=top;spacingLeft=4;spacingRight=4;overflow=hidden;rotatable=0;points=[[0,0.5],[1,0.5]];portConstraint=eastwest;whiteSpace=wrap;html=1;" parent="ca8j578SD8EArVR1W1hy-23" vertex="1">
          <mxGeometry y="112" width="310" height="26" as="geometry" />
        </mxCell>
        <mxCell id="ca8j578SD8EArVR1W1hy-29" value="- startPlatoon(): void" style="text;strokeColor=none;fillColor=none;align=left;verticalAlign=top;spacingLeft=4;spacingRight=4;overflow=hidden;rotatable=0;points=[[0,0.5],[1,0.5]];portConstraint=eastwest;whiteSpace=wrap;html=1;" parent="ca8j578SD8EArVR1W1hy-23" vertex="1">
          <mxGeometry y="138" width="310" height="26" as="geometry" />
        </mxCell>
        <mxCell id="ca8j578SD8EArVR1W1hy-30" value="- discover(): void" style="text;strokeColor=none;fillColor=none;align=left;verticalAlign=top;spacingLeft=4;spacingRight=4;overflow=hidden;rotatable=0;points=[[0,0.5],[1,0.5]];portConstraint=eastwest;whiteSpace=wrap;html=1;" parent="ca8j578SD8EArVR1W1hy-23" vertex="1">
          <mxGeometry y="164" width="310" height="26" as="geometry" />
        </mxCell>
        <mxCell id="DZqbYFEfVbbvA-hTLJma-2" style="edgeStyle=orthogonalEdgeStyle;rounded=0;orthogonalLoop=1;jettySize=auto;html=1;endArrow=none;endFill=0;" parent="1" source="ca8j578SD8EArVR1W1hy-31" edge="1">
          <mxGeometry relative="1" as="geometry">
            <mxPoint x="870" y="400" as="targetPoint" />
            <Array as="points">
              <mxPoint x="980" y="400" />
              <mxPoint x="980" y="400" />
            </Array>
          </mxGeometry>
        </mxCell>
        <mxCell id="ca8j578SD8EArVR1W1hy-31" value="Prime Follower" style="swimlane;fontStyle=0;childLayout=stackLayout;horizontal=1;startSize=26;fillColor=none;horizontalStack=0;resizeParent=1;resizeParentMax=0;resizeLast=0;collapsible=1;marginBottom=0;whiteSpace=wrap;html=1;" parent="1" vertex="1">
          <mxGeometry x="1020" y="350" width="310" height="94" as="geometry" />
        </mxCell>
        <mxCell id="ca8j578SD8EArVR1W1hy-32" value="- platoon: Platoon" style="text;strokeColor=none;fillColor=none;align=left;verticalAlign=top;spacingLeft=4;spacingRight=4;overflow=hidden;rotatable=0;points=[[0,0.5],[1,0.5]];portConstraint=eastwest;whiteSpace=wrap;html=1;" parent="ca8j578SD8EArVR1W1hy-31" vertex="1">
          <mxGeometry y="26" width="310" height="26" as="geometry" />
        </mxCell>
        <mxCell id="T0Gs8_7Xzek17lIW9bHx-5" value="" style="line;strokeWidth=1;fillColor=none;align=left;verticalAlign=middle;spacingTop=-1;spacingLeft=3;spacingRight=3;rotatable=0;labelPosition=right;points=[];portConstraint=eastwest;strokeColor=inherit;" parent="ca8j578SD8EArVR1W1hy-31" vertex="1">
          <mxGeometry y="52" width="310" height="8" as="geometry" />
        </mxCell>
        <mxCell id="ca8j578SD8EArVR1W1hy-33" value="" style="line;strokeWidth=1;fillColor=none;align=left;verticalAlign=middle;spacingTop=-1;spacingLeft=3;spacingRight=3;rotatable=0;labelPosition=right;points=[];portConstraint=eastwest;strokeColor=inherit;" parent="ca8j578SD8EArVR1W1hy-31" vertex="1">
          <mxGeometry y="60" width="310" height="8" as="geometry" />
        </mxCell>
        <mxCell id="ca8j578SD8EArVR1W1hy-34" value="- replaaceLeader(): void" style="text;strokeColor=none;fillColor=none;align=left;verticalAlign=top;spacingLeft=4;spacingRight=4;overflow=hidden;rotatable=0;points=[[0,0.5],[1,0.5]];portConstraint=eastwest;whiteSpace=wrap;html=1;" parent="ca8j578SD8EArVR1W1hy-31" vertex="1">
          <mxGeometry y="68" width="310" height="26" as="geometry" />
        </mxCell>
        <mxCell id="DZqbYFEfVbbvA-hTLJma-1" style="edgeStyle=orthogonalEdgeStyle;rounded=0;orthogonalLoop=1;jettySize=auto;html=1;endArrow=none;endFill=0;" parent="1" source="ca8j578SD8EArVR1W1hy-35" edge="1">
          <mxGeometry relative="1" as="geometry">
            <mxPoint x="869.9999999999998" y="350" as="targetPoint" />
          </mxGeometry>
        </mxCell>
        <mxCell id="ca8j578SD8EArVR1W1hy-35" value="Follower" style="swimlane;fontStyle=0;childLayout=stackLayout;horizontal=1;startSize=26;fillColor=none;horizontalStack=0;resizeParent=1;resizeParentMax=0;resizeLast=0;collapsible=1;marginBottom=0;whiteSpace=wrap;html=1;" parent="1" vertex="1">
          <mxGeometry x="1105" y="518" width="140" height="52" as="geometry" />
        </mxCell>
        <mxCell id="ca8j578SD8EArVR1W1hy-44" style="edgeStyle=orthogonalEdgeStyle;rounded=0;orthogonalLoop=1;jettySize=auto;html=1;entryX=0.997;entryY=-0.058;entryDx=0;entryDy=0;entryPerimeter=0;endArrow=block;endFill=0;" parent="1" target="ca8j578SD8EArVR1W1hy-19" edge="1">
          <mxGeometry relative="1" as="geometry">
            <Array as="points">
              <mxPoint x="570" y="353" />
              <mxPoint x="570" y="618" />
              <mxPoint x="500" y="618" />
            </Array>
            <mxPoint x="870" y="353" as="sourcePoint" />
          </mxGeometry>
        </mxCell>
        <mxCell id="ca8j578SD8EArVR1W1hy-45" value="CollisionSensor" style="swimlane;fontStyle=0;childLayout=stackLayout;horizontal=1;startSize=26;fillColor=none;horizontalStack=0;resizeParent=1;resizeParentMax=0;resizeLast=0;collapsible=1;marginBottom=0;whiteSpace=wrap;html=1;" parent="1" vertex="1">
          <mxGeometry x="50" y="800" width="230" height="86" as="geometry" />
        </mxCell>
        <mxCell id="ca8j578SD8EArVR1W1hy-46" value="- status: String" style="text;strokeColor=none;fillColor=none;align=left;verticalAlign=top;spacingLeft=4;spacingRight=4;overflow=hidden;rotatable=0;points=[[0,0.5],[1,0.5]];portConstraint=eastwest;whiteSpace=wrap;html=1;" parent="ca8j578SD8EArVR1W1hy-45" vertex="1">
          <mxGeometry y="26" width="230" height="26" as="geometry" />
        </mxCell>
        <mxCell id="ca8j578SD8EArVR1W1hy-47" value="" style="line;strokeWidth=1;fillColor=none;align=left;verticalAlign=middle;spacingTop=-1;spacingLeft=3;spacingRight=3;rotatable=0;labelPosition=right;points=[];portConstraint=eastwest;strokeColor=inherit;" parent="ca8j578SD8EArVR1W1hy-45" vertex="1">
          <mxGeometry y="52" width="230" height="8" as="geometry" />
        </mxCell>
        <mxCell id="ca8j578SD8EArVR1W1hy-48" value="- check(): void" style="text;strokeColor=none;fillColor=none;align=left;verticalAlign=top;spacingLeft=4;spacingRight=4;overflow=hidden;rotatable=0;points=[[0,0.5],[1,0.5]];portConstraint=eastwest;whiteSpace=wrap;html=1;" parent="ca8j578SD8EArVR1W1hy-45" vertex="1">
          <mxGeometry y="60" width="230" height="26" as="geometry" />
        </mxCell>
        <mxCell id="ca8j578SD8EArVR1W1hy-49" style="edgeStyle=orthogonalEdgeStyle;rounded=0;orthogonalLoop=1;jettySize=auto;html=1;entryX=0.193;entryY=1.001;entryDx=0;entryDy=0;entryPerimeter=0;endArrow=diamond;endFill=1;" parent="1" source="ca8j578SD8EArVR1W1hy-45" target="ca8j578SD8EArVR1W1hy-15" edge="1">
          <mxGeometry relative="1" as="geometry">
            <Array as="points">
              <mxPoint x="110" y="510" />
              <mxPoint x="112" y="510" />
            </Array>
          </mxGeometry>
        </mxCell>
        <mxCell id="ca8j578SD8EArVR1W1hy-61" value="1" style="edgeLabel;html=1;align=center;verticalAlign=middle;resizable=0;points=[];" parent="ca8j578SD8EArVR1W1hy-49" vertex="1" connectable="0">
          <mxGeometry x="0.8536" y="2" relative="1" as="geometry">
            <mxPoint x="-10" y="-16" as="offset" />
          </mxGeometry>
        </mxCell>
        <mxCell id="ca8j578SD8EArVR1W1hy-62" value="1" style="edgeLabel;html=1;align=center;verticalAlign=middle;resizable=0;points=[];" parent="ca8j578SD8EArVR1W1hy-49" vertex="1" connectable="0">
          <mxGeometry x="-0.8833" relative="1" as="geometry">
            <mxPoint x="-10" y="1" as="offset" />
          </mxGeometry>
        </mxCell>
        <mxCell id="ca8j578SD8EArVR1W1hy-50" value="Message" style="swimlane;fontStyle=0;childLayout=stackLayout;horizontal=1;startSize=26;fillColor=none;horizontalStack=0;resizeParent=1;resizeParentMax=0;resizeLast=0;collapsible=1;marginBottom=0;whiteSpace=wrap;html=1;" parent="1" vertex="1">
          <mxGeometry x="1030" y="723" width="230" height="134" as="geometry" />
        </mxCell>
        <mxCell id="ca8j578SD8EArVR1W1hy-51" value="- id: int" style="text;strokeColor=none;fillColor=none;align=left;verticalAlign=top;spacingLeft=4;spacingRight=4;overflow=hidden;rotatable=0;points=[[0,0.5],[1,0.5]];portConstraint=eastwest;whiteSpace=wrap;html=1;" parent="ca8j578SD8EArVR1W1hy-50" vertex="1">
          <mxGeometry y="26" width="230" height="26" as="geometry" />
        </mxCell>
        <mxCell id="ca8j578SD8EArVR1W1hy-54" value="- type: String" style="text;strokeColor=none;fillColor=none;align=left;verticalAlign=top;spacingLeft=4;spacingRight=4;overflow=hidden;rotatable=0;points=[[0,0.5],[1,0.5]];portConstraint=eastwest;whiteSpace=wrap;html=1;" parent="ca8j578SD8EArVR1W1hy-50" vertex="1">
          <mxGeometry y="52" width="230" height="26" as="geometry" />
        </mxCell>
        <mxCell id="iRukb6ueBPXRsKq6WhAc-4" value="- utc: DateTime" style="text;strokeColor=none;fillColor=none;align=left;verticalAlign=middle;spacingLeft=4;spacingRight=4;overflow=hidden;points=[[0,0.5],[1,0.5]];portConstraint=eastwest;rotatable=0;whiteSpace=wrap;html=1;" parent="ca8j578SD8EArVR1W1hy-50" vertex="1">
          <mxGeometry y="78" width="230" height="30" as="geometry" />
        </mxCell>
        <mxCell id="ca8j578SD8EArVR1W1hy-55" value="- body: dict" style="text;strokeColor=none;fillColor=none;align=left;verticalAlign=top;spacingLeft=4;spacingRight=4;overflow=hidden;rotatable=0;points=[[0,0.5],[1,0.5]];portConstraint=eastwest;whiteSpace=wrap;html=1;" parent="ca8j578SD8EArVR1W1hy-50" vertex="1">
          <mxGeometry y="108" width="230" height="26" as="geometry" />
        </mxCell>
        <mxCell id="iRukb6ueBPXRsKq6WhAc-3" style="edgeStyle=orthogonalEdgeStyle;rounded=0;orthogonalLoop=1;jettySize=auto;html=1;entryX=0.998;entryY=-0.077;entryDx=0;entryDy=0;entryPerimeter=0;endArrow=block;endFill=0;" parent="1" target="ca8j578SD8EArVR1W1hy-10" edge="1">
          <mxGeometry relative="1" as="geometry">
            <Array as="points">
              <mxPoint x="480" y="330" />
              <mxPoint x="480" y="332" />
            </Array>
            <mxPoint x="869.9999999999998" y="330" as="sourcePoint" />
          </mxGeometry>
        </mxCell>
      </root>
    </mxGraphModel>
  </diagram>
</mxfile>
